<svg width="477" height="133" viewBox="0 0 477 133" fill="none" xmlns="http://www.w3.org/2000/svg">
<path d="M4.42383 8.99023H31.5566C33.9955 8.99023 35.9804 10.9752 35.9804 13.4141C35.9804 13.7954 35.4206 8.61813 44.4111 89.5373C39.4815 91.4762 35.9804 96.2802 35.9804 101.891C35.9804 109.208 41.9342 115.159 49.2519 115.159H54.4361C53.9453 116.543 53.6757 118.035 53.6757 119.586C53.6757 126.904 59.6295 132.857 66.9472 132.857C74.265 132.857 80.2187 126.904 80.2187 119.586C80.2187 118.035 79.9491 116.543 79.4584 115.159H107.523C107.031 116.543 106.762 118.035 106.762 119.586C106.762 126.904 112.715 132.857 120.033 132.857C127.351 132.857 133.305 126.904 133.305 119.586C133.305 112.268 127.351 106.314 120.033 106.314H49.2519C46.8131 106.314 44.8281 104.329 44.8281 101.891C44.8281 99.4518 46.8131 97.4668 49.2519 97.4668H130.233C136.748 97.4668 142.254 92.8033 143.324 86.3773L150.94 40.684C151.153 39.4017 150.793 38.0896 149.952 37.0977C149.111 36.1058 147.877 35.5332 146.576 35.5332H133.305V13.4141C133.305 10.9706 131.324 8.99023 128.881 8.99023H93.4902C91.0467 8.99023 89.0664 10.9706 89.0664 13.4141V17.8379H66.9472C64.5038 17.8379 62.5234 19.8182 62.5234 22.2617V35.5332H47.313L44.8258 13.1445C44.6806 5.95116 38.7845 0.142578 31.5566 0.142578H4.42383C1.98035 0.142578 0 2.12293 0 4.56641C0 7.00988 1.98035 8.99023 4.42383 8.99023ZM71.371 119.586C71.371 122.025 69.3861 124.01 66.9472 124.01C64.5084 124.01 62.5234 122.025 62.5234 119.586C62.5234 117.147 64.5084 115.159 66.9472 115.159C69.3861 115.159 71.371 117.147 71.371 119.586ZM120.033 124.01C117.594 124.01 115.609 122.025 115.609 119.586C115.609 117.139 117.594 115.162 120.033 115.162C122.472 115.162 124.457 117.147 124.457 119.586C124.457 122.025 122.472 124.01 120.033 124.01ZM97.914 17.8379H124.457V35.5332H97.914V17.8379ZM71.371 26.6855H89.0664V35.5332H71.371V26.6855ZM141.354 44.3809L134.597 84.9222C134.24 87.065 132.405 88.6191 130.233 88.6191H53.2115L48.2957 44.3809H141.354Z" fill="#ed893e"/>
<path d="M66.9472 79.7715C69.3907 79.7715 71.3711 77.7911 71.3711 75.3477V57.6523C71.3711 55.2089 69.3907 53.2285 66.9472 53.2285C64.5038 53.2285 62.5234 55.2089 62.5234 57.6523V75.3477C62.5234 77.7911 64.5038 79.7715 66.9472 79.7715Z" fill="#ed893e"/>
<path d="M93.4902 79.7715C95.9337 79.7715 97.914 77.7911 97.914 75.3477V57.6523C97.914 55.2089 95.9337 53.2285 93.4902 53.2285C91.0467 53.2285 89.0664 55.2089 89.0664 57.6523V75.3477C89.0664 77.7911 91.0467 79.7715 93.4902 79.7715Z" fill="#ed893e"/>
<path d="M120.033 79.7715C122.477 79.7715 124.457 77.7911 124.457 75.3477V57.6523C124.457 55.2089 122.477 53.2285 120.033 53.2285C117.59 53.2285 115.609 55.2089 115.609 57.6523V75.3477C115.609 77.7911 117.59 79.7715 120.033 79.7715Z" fill="#ed893e"/>
<path d="M233.094 82.5469C233.094 80.2031 232.203 78.3906 230.422 77.1094C228.672 75.7969 225.594 74.6719 221.188 73.7344C216.812 72.7969 213.328 71.6719 210.734 70.3594C208.172 69.0469 206.266 67.4844 205.016 65.6719C203.797 63.8594 203.188 61.7031 203.188 59.2031C203.188 55.0469 204.938 51.5312 208.438 48.6562C211.969 45.7812 216.469 44.3438 221.938 44.3438C227.688 44.3438 232.344 45.8281 235.906 48.7969C239.5 51.7656 241.297 55.5625 241.297 60.1875H232.578C232.578 57.8125 231.562 55.7656 229.531 54.0469C227.531 52.3281 225 51.4688 221.938 51.4688C218.781 51.4688 216.312 52.1562 214.531 53.5312C212.75 54.9062 211.859 56.7031 211.859 58.9219C211.859 61.0156 212.688 62.5938 214.344 63.6562C216 64.7188 218.984 65.7344 223.297 66.7031C227.641 67.6719 231.156 68.8281 233.844 70.1719C236.531 71.5156 238.516 73.1406 239.797 75.0469C241.109 76.9219 241.766 79.2188 241.766 81.9375C241.766 86.4688 239.953 90.1094 236.328 92.8594C232.703 95.5781 228 96.9375 222.219 96.9375C218.156 96.9375 214.562 96.2188 211.438 94.7812C208.312 93.3438 205.859 91.3438 204.078 88.7812C202.328 86.1875 201.453 83.3906 201.453 80.3906H210.125C210.281 83.2969 211.438 85.6094 213.594 87.3281C215.781 89.0156 218.656 89.8594 222.219 89.8594C225.5 89.8594 228.125 89.2031 230.094 87.8906C232.094 86.5469 233.094 84.7656 233.094 82.5469Z" fill="#ed893e"/>
<path d="M261.734 51.4219C265.578 46.7031 270.578 44.3438 276.734 44.3438C287.453 44.3438 292.859 50.3906 292.953 62.4844V96H284.281V62.4375C284.25 58.7812 283.406 56.0781 281.75 54.3281C280.125 52.5781 277.578 51.7031 274.109 51.7031C271.297 51.7031 268.828 52.4531 266.703 53.9531C264.578 55.4531 262.922 57.4219 261.734 59.8594V96H253.062V24H261.734V51.4219Z" fill="#ed893e"/>
<path d="M348.781 71.2031C348.781 78.9219 347.016 85.1406 343.484 89.8594C339.953 94.5781 335.172 96.9375 329.141 96.9375C322.984 96.9375 318.141 94.9844 314.609 91.0781V115.5H305.938V45.2812H313.859L314.281 50.9062C317.812 46.5312 322.719 44.3438 329 44.3438C335.094 44.3438 339.906 46.6406 343.438 51.2344C347 55.8281 348.781 62.2188 348.781 70.4062V71.2031ZM340.109 70.2188C340.109 64.5 338.891 59.9844 336.453 56.6719C334.016 53.3594 330.672 51.7031 326.422 51.7031C321.172 51.7031 317.234 54.0312 314.609 58.6875V82.9219C317.203 87.5469 321.172 89.8594 326.516 89.8594C330.672 89.8594 333.969 88.2188 336.406 84.9375C338.875 81.625 340.109 76.7188 340.109 70.2188Z" fill="#ed893e"/>
<path d="M369.266 96H360.594V45.2812H369.266V96ZM359.891 31.8281C359.891 30.4219 360.312 29.2344 361.156 28.2656C362.031 27.2969 363.312 26.8125 365 26.8125C366.688 26.8125 367.969 27.2969 368.844 28.2656C369.719 29.2344 370.156 30.4219 370.156 31.8281C370.156 33.2344 369.719 34.4062 368.844 35.3438C367.969 36.2812 366.688 36.75 365 36.75C363.312 36.75 362.031 36.2812 361.156 35.3438C360.312 34.4062 359.891 33.2344 359.891 31.8281Z" fill="#ed893e"/>
<path d="M391.391 45.2812L391.672 51.6562C395.547 46.7812 400.609 44.3438 406.859 44.3438C417.578 44.3438 422.984 50.3906 423.078 62.4844V96H414.406V62.4375C414.375 58.7812 413.531 56.0781 411.875 54.3281C410.25 52.5781 407.703 51.7031 404.234 51.7031C401.422 51.7031 398.953 52.4531 396.828 53.9531C394.703 55.4531 393.047 57.4219 391.859 59.8594V96H383.188V45.2812H391.391Z" fill="#ed893e"/>
<path d="M434.094 70.2188C434.094 62.3125 435.922 56.0312 439.578 51.375C443.234 46.6875 448.078 44.3438 454.109 44.3438C460.297 44.3438 465.125 46.5312 468.594 50.9062L469.016 45.2812H476.938V94.7812C476.938 101.344 474.984 106.516 471.078 110.297C467.203 114.078 461.984 115.969 455.422 115.969C451.766 115.969 448.188 115.188 444.688 113.625C441.188 112.062 438.516 109.922 436.672 107.203L441.172 102C444.891 106.594 449.438 108.891 454.812 108.891C459.031 108.891 462.312 107.703 464.656 105.328C467.031 102.953 468.219 99.6094 468.219 95.2969V90.9375C464.75 94.9375 460.016 96.9375 454.016 96.9375C448.078 96.9375 443.266 94.5469 439.578 89.7656C435.922 84.9844 434.094 78.4688 434.094 70.2188ZM442.812 71.2031C442.812 76.9219 443.984 81.4219 446.328 84.7031C448.672 87.9531 451.953 89.5781 456.172 89.5781C461.641 89.5781 465.656 87.0938 468.219 82.125V58.9688C465.562 54.125 461.578 51.7031 456.266 51.7031C452.047 51.7031 448.75 53.3438 446.375 56.625C444 59.9062 442.812 64.7656 442.812 71.2031Z" fill="#ed893e"/>
</svg>
